**ABCDEFGHIJKLMNOPQRSTUVWXYZabcdefghijklmnopqrstuvwxyz**************************
**PARASOLID !"#$%&'()*+,-./:;<=>?@[\]^_`{|}~0123456789**************************
**PART1;
MC=AMD64;
MC_MODEL=Intel64 Family 6 Model 58 Stepping 9, GenuineIntel;
MC_ID=unknown;
OS=Windows_NT;
OS_RELEASE=unknown;
FRU=Parasolid Version 28.0, build 191,  8-24-2015;
APPL=SOLIDWORKS 2016-2015334;
SITE=;
USER=unknown;
FORMAT=text;
GUISE=transmit;
KEY=makeProjectedPlanarWire;
FILE=makeProjectedPlanarWire.x_t;
DATE=Sun Feb 09 18:35:07 2020;
**PART2;
SCH=SCH_2800191_28002;
USFLD_SIZE=0;
**PART3;
**END_OF_HEADER*****************************************************************
T51 : TRANSMIT FILE created by modeller version 280019123 SCH_2800191_28002_1300
6200 0 12 30 CCCCCCCCCCCCCDI5 owner1040 0 CCCCCCCCCA13 boundary_mesh1006 0 A16 i
ndex_map_offset0 0 1 dA9 index_map82 0 A17 node_id_index_map82 0 A20 schema_embe
dding_map82 0 A5 child12 0 A14 lowest_node_id0 0 1 dZ1 43 0 2 0 0 0 0 1e3 1e-8 0
 3 0 1 0 3 1 4 5 6 7 8 9 10 0 0 0 0 0 0 0 70 11 CI9 list_type0 0 1 uI10 notransm
it0 0 1 lCCCDCCDI12 finger_index0 0 1 dI12 finger_block1012 0 CZ2 0 4 T1 0 0 1 2
0 1 11 11 13 255 4 40 0 1 0 12 0 0 8 12 50 255 5 2 0 12 0 0 0 +-.082 -.052 .06 0
 0 1 1 0 0 30 255 6 18 0 9 13 0 0 +-.087 -.057 .06 -1 0 0 29 255 7 33 0 10 14 0
 -.087 -.057 .06 19 8 CCCCCCCA5 owner12 0 Z8 39 0 1 0 0 4 V0 16 255 9 17 0 ?15 0
 16 6 0 0 1 18 255 10 31 0 17 0 18 7 ?1 17 255 17 0 0 0 0 10 19 20 0 15 -18 18 2
8 0 21 10 22 14 ?1 17 21 0 23 15 24 18 25 16 0 26 +18 22 25 0 24 18 27 28 ?1 29
 14 30 0 18 28 7 -.077 -.057 .06 29 28 27 0 22 29 14 -.077 -.052 .06 29 29 24 0
 27 30 28 -.082 -.047 .06 18 27 22 0 31 22 32 29 ?1 29 30 21 0 32 0 29 -.087 -.0
47 .06 18 32 19 0 19 27 0 30 ?1 17 19 0 23 31 15 32 17 20 0 33 +15 255 23 6 0 19
 12 0 17 31 0 23 24 19 27 33 34 0 35 +17 15 0 23 19 21 10 26 9 0 0 +16 20 9 0 ?1
9 34 36 37 0 0 1 17 33 0 0 0 0 32 31 34 0 0 -16 34 11 0 ?31 38 20 39 0 0 1 16 38
 13 0 ?24 16 34 40 0 0 1 30 39 12 0 34 37 40 0 +-.087 -.047 .06 1 0 0 30 37 10 0
 20 41 39 0 +-.087 -.057 .06 0 1 0 31 255 40 14 0 38 39 13 0 +-.082 -.052 .06 0
 0 -1 1 0 0 .005 30 13 16 0 16 40 6 0 +-.077 -.057 .06 -2775557561562895e-30 -1
 0 16 16 15 0 ?21 9 38 13 0 0 1 31 41 8 0 36 0 37 0 +-.082 -.052 .06 0 0 -1 1 0
 0 .0015 16 36 7 0 ?42 20 0 41 0 0 1 17 42 0 0 0 0 0 43 36 0 0 +17 43 0 44 43 43
 0 42 36 0 0 -15 44 5 0 43 12 23 14 255 12 1 45 ?0 0 44 4 5 -0 0 0 0 4 81 255 1
 45 43 46 12 0 0 0 0 47 80 255 1 46 48 49 9000 1 1 1 1 1 1 1 1 0 FFFFTFTFFFFFFF1
 82 255 1 47 1905459733 79 255 14 49 SWEntUnchanged17 24 0 23 21 31 22 35 38 0 2
5 +17 35 0 0 0 0 27 24 38 0 0 -17 25 0 0 0 0 22 21 16 0 0 -17 26 0 0 0 0 18 15 9
 0 0 -74 4 CI16 index_map_offset0 0 1 dCCZ20 11 1 0 0 45 0 0 0 0 0 0 0 0 0 0 0 0
 0 0 0 0 0 0 0 1 0 
