M48
;Layer_Color=9474304
;FILE_FORMAT=4:3
METRIC,LZ
;TYPE=PLATED
T1F00S00C0.300
T2F00S00C0.500
T3F00S00C0.800
T4F00S00C0.900
T5F00S00C1.000
T6F00S00C1.200
T7F00S00C1.500
T8F00S00C2.500
%
T01
X002247Y0012065
X003087Y001109
X0034195Y001961
X0026534Y0021971
X0017805Y002861
T02
X0059055Y0022225
X006096Y0026035
X006275Y0025175
X006025Y003008
X006575Y003058
X006925Y002983
X007175Y003208
Y003358
X006858Y002025
Y0018415
X009Y0028691
X005775Y003208
X005233Y003108
X0049226Y003204
X005588Y0023495
X003556Y0026035
X0020955
X002247Y0046595
X0027035Y004533
X0037878Y0042345
X0044331Y0034485
X0051385Y003458
X005775Y003758
X0055786Y004129
X005996Y0043773
X0066675Y004191
X006575Y003858
X007375Y003558
X007275Y003458
X007475Y003658
X0077085Y0035874
X0076665Y0039243
X007896Y0044243
X0076315Y0046513
X007146Y0047357
X0074638Y0052374
T03
X004046Y000762
Y001016
Y00127
Y002032
Y002286
Y00254
T04
X008382Y0010795
Y0013335
X008636
X00889
X009144
X009398
Y0010795
X009144
X00889
X008636
T05
X0060924Y000337
X0063464
X0066004
X0068544
X008128Y000381
X008382
X008636
X00889
X009Y002025
X00925
X00875
X00762Y0013335
Y0010795
X007603Y0028956
Y0031496
X0058384Y000337
X0055844
X0050764
X0048224
X0045684
X0043144
X0040604
X0038064
X003908Y005163
X003654
X0034
X003146
X002892
X004162
X004416
X00467
X0050764
X0053304
X0055844
X0058384
X0060924
X0063464
X0066004
X0068544
X00875Y003475
X00925
X009762Y0040513
Y0043053
T06
X000381Y00148
Y001988
Y002496
Y003004
Y003512
Y00402
T07
X0014605Y0003064
Y0025924
T08
X00834Y002775
X00966
M30
