G04*
G04 #@! TF.GenerationSoftware,Altium Limited,Altium Designer,22.2.1 (43)*
G04*
G04 Layer_Color=16711935*
%FSLAX43Y43*%
%MOMM*%
G71*
G04*
G04 #@! TF.SameCoordinates,4727E17F-0EAD-4C76-84FB-9B022A49384D*
G04*
G04*
G04 #@! TF.FilePolarity,Negative*
G04*
G01*
G75*
%ADD12C,0.254*%
%ADD23R,1.203X1.503*%
%ADD24R,1.503X1.203*%
%ADD34C,1.903*%
%ADD35C,2.003*%
%ADD36C,3.203*%
%ADD37C,2.803*%
%ADD38O,4.203X3.703*%
%ADD39O,3.703X4.403*%
%ADD40O,2.203X2.503*%
%ADD41C,1.303*%
%ADD42C,0.953*%
%ADD78R,1.403X0.503*%
%ADD79R,0.503X1.403*%
%ADD80R,4.003X1.803*%
%ADD81R,1.403X0.803*%
%ADD82R,1.503X3.903*%
%ADD83R,10.503X9.203*%
%ADD84O,2.403X0.803*%
D12*
X-0Y-0D02*
X100000D01*
X-0D02*
Y55000D01*
X100000D01*
Y-0D02*
Y55000D01*
D23*
X46686Y30770D02*
D03*
X44654D02*
D03*
X28820Y47235D02*
D03*
X30852D02*
D03*
X24502D02*
D03*
X26534D02*
D03*
X22458Y44845D02*
D03*
X24490D02*
D03*
X11405Y29620D02*
D03*
X13437D02*
D03*
X90000Y31866D02*
D03*
X87968D02*
D03*
X53754Y39616D02*
D03*
X55786D02*
D03*
X28820Y45330D02*
D03*
X30852D02*
D03*
X26534Y37075D02*
D03*
X24502D02*
D03*
X24490Y42940D02*
D03*
X22458D02*
D03*
Y41035D02*
D03*
X24490D02*
D03*
X22458Y39118D02*
D03*
X24490D02*
D03*
X32846Y36345D02*
D03*
X34878D02*
D03*
D24*
X9500Y34065D02*
D03*
Y36097D02*
D03*
X93000Y25516D02*
D03*
Y23484D02*
D03*
X91000Y25516D02*
D03*
Y23484D02*
D03*
X87000D02*
D03*
Y25516D02*
D03*
X89000Y23484D02*
D03*
Y25516D02*
D03*
X87000Y27675D02*
D03*
Y29707D02*
D03*
X43378Y38829D02*
D03*
Y40861D02*
D03*
D34*
X28920Y51630D02*
D03*
X31460D02*
D03*
X34000D02*
D03*
X36540D02*
D03*
X39080D02*
D03*
X41620D02*
D03*
X44160D02*
D03*
X46700D02*
D03*
X50764D02*
D03*
X53304D02*
D03*
X55844D02*
D03*
X58384D02*
D03*
X60924D02*
D03*
X63464D02*
D03*
X66004D02*
D03*
X68544D02*
D03*
Y3370D02*
D03*
X66004D02*
D03*
X63464D02*
D03*
X60924D02*
D03*
X58384D02*
D03*
X55844D02*
D03*
X50764D02*
D03*
X48224D02*
D03*
X45684D02*
D03*
X43144D02*
D03*
X40604D02*
D03*
X38064D02*
D03*
X97620Y40513D02*
D03*
Y43053D02*
D03*
X83820Y13335D02*
D03*
X86360D02*
D03*
X88900D02*
D03*
X91440D02*
D03*
X93980D02*
D03*
Y10795D02*
D03*
X91440D02*
D03*
X88900D02*
D03*
X86360D02*
D03*
X83820D02*
D03*
X76030Y31496D02*
D03*
Y28956D02*
D03*
X76200Y13335D02*
D03*
Y10795D02*
D03*
X88900Y3810D02*
D03*
X86360D02*
D03*
X83820D02*
D03*
X81280D02*
D03*
D35*
X40460Y22860D02*
D03*
Y20320D02*
D03*
Y12700D02*
D03*
Y10160D02*
D03*
Y7620D02*
D03*
Y25400D02*
D03*
D36*
X97000Y52000D02*
D03*
X3000D02*
D03*
Y3000D02*
D03*
X14605Y3064D02*
D03*
Y25924D02*
D03*
X97000Y3000D02*
D03*
D37*
X14605Y14494D02*
D03*
D38*
X3810Y19880D02*
D03*
Y14800D02*
D03*
Y30040D02*
D03*
Y24960D02*
D03*
Y40200D02*
D03*
Y35120D02*
D03*
D39*
X96600Y27750D02*
D03*
X83400D02*
D03*
D40*
X87500Y34750D02*
D03*
X92500D02*
D03*
Y20250D02*
D03*
X90000D02*
D03*
X87500D02*
D03*
D41*
X55786Y41290D02*
D03*
X20955Y26035D02*
D03*
X52330Y31080D02*
D03*
X51385Y34580D02*
D03*
X49226Y32040D02*
D03*
X44331Y34485D02*
D03*
X71750Y32080D02*
D03*
X77085Y35874D02*
D03*
X59960Y43773D02*
D03*
X74638Y52374D02*
D03*
X71460Y47357D02*
D03*
X78960Y44243D02*
D03*
X65750Y38580D02*
D03*
X37878Y42345D02*
D03*
X76315Y46513D02*
D03*
X27035Y45330D02*
D03*
X22470Y46595D02*
D03*
X35560Y26035D02*
D03*
X90000Y28691D02*
D03*
X72750Y34580D02*
D03*
X76665Y39243D02*
D03*
X62750Y25175D02*
D03*
X71750Y33580D02*
D03*
X73750Y35580D02*
D03*
X74750Y36580D02*
D03*
X69250Y29830D02*
D03*
X59055Y22225D02*
D03*
X60960Y26035D02*
D03*
X55880Y23495D02*
D03*
X68580Y18415D02*
D03*
Y20250D02*
D03*
X57750Y37580D02*
D03*
Y32080D02*
D03*
X65750Y30580D02*
D03*
X60250Y30080D02*
D03*
X66675Y41910D02*
D03*
D42*
X17805Y28610D02*
D03*
X26534Y21971D02*
D03*
X30870Y11090D02*
D03*
X34195Y19610D02*
D03*
X22470Y12065D02*
D03*
D78*
X56250Y30580D02*
D03*
Y31080D02*
D03*
Y31580D02*
D03*
Y32080D02*
D03*
Y32580D02*
D03*
Y33080D02*
D03*
Y33580D02*
D03*
Y34080D02*
D03*
Y34580D02*
D03*
Y38080D02*
D03*
Y37580D02*
D03*
Y37080D02*
D03*
Y36580D02*
D03*
Y36080D02*
D03*
Y35580D02*
D03*
Y35080D02*
D03*
X67750Y30580D02*
D03*
Y31080D02*
D03*
Y31580D02*
D03*
Y32080D02*
D03*
Y32580D02*
D03*
Y37580D02*
D03*
Y37080D02*
D03*
Y33580D02*
D03*
Y34080D02*
D03*
Y34580D02*
D03*
Y35080D02*
D03*
Y35580D02*
D03*
Y36080D02*
D03*
Y36580D02*
D03*
Y33080D02*
D03*
Y38080D02*
D03*
D79*
X61250Y28580D02*
D03*
X60750D02*
D03*
X60250D02*
D03*
X59750D02*
D03*
X59250D02*
D03*
X58750D02*
D03*
X58250D02*
D03*
X61750D02*
D03*
X62250D02*
D03*
X62750D02*
D03*
X63250D02*
D03*
X63750D02*
D03*
X64250D02*
D03*
X64750D02*
D03*
X65250D02*
D03*
X65750D02*
D03*
X58250Y40080D02*
D03*
X63250D02*
D03*
X59750D02*
D03*
X60250D02*
D03*
X60750D02*
D03*
X61250D02*
D03*
X61750D02*
D03*
X62250D02*
D03*
X62750D02*
D03*
X59250D02*
D03*
X58750D02*
D03*
X63750D02*
D03*
X64250D02*
D03*
X64750D02*
D03*
X65250D02*
D03*
X65750D02*
D03*
D80*
X30870Y5715D02*
D03*
X22470D02*
D03*
Y17145D02*
D03*
X30870D02*
D03*
X22470Y28575D02*
D03*
X30870D02*
D03*
D81*
X17805Y34065D02*
D03*
Y31525D02*
D03*
X11405D02*
D03*
Y34065D02*
D03*
X41278Y38345D02*
D03*
Y40885D02*
D03*
X34878D02*
D03*
Y38345D02*
D03*
D82*
X17145Y38370D02*
D03*
X12065D02*
D03*
D83*
X14605Y48970D02*
D03*
D84*
X27550Y42155D02*
D03*
Y43425D02*
D03*
Y39615D02*
D03*
Y40885D02*
D03*
X32350Y42155D02*
D03*
Y43425D02*
D03*
Y40885D02*
D03*
Y39615D02*
D03*
M02*
