G04*
G04 #@! TF.GenerationSoftware,Altium Limited,Altium Designer,22.2.1 (43)*
G04*
G04 Layer_Color=65535*
%FSLAX43Y43*%
%MOMM*%
G71*
G04*
G04 #@! TF.SameCoordinates,4727E17F-0EAD-4C76-84FB-9B022A49384D*
G04*
G04*
G04 #@! TF.FilePolarity,Positive*
G04*
G01*
G75*
%ADD10C,2.000*%
%ADD11C,0.250*%
%ADD12C,0.254*%
%ADD13C,0.150*%
%ADD14C,0.200*%
%ADD15C,0.100*%
%ADD16R,2.000X10.000*%
%ADD17R,3.000X2.000*%
%ADD18R,4.445X2.270*%
%ADD19R,1.000X2.000*%
%ADD20R,3.000X2.000*%
D10*
X64000Y7000D02*
G03*
X64000Y15000I0J4000D01*
G01*
D11*
X35900Y37409D02*
G03*
X35900Y37409I-125J0D01*
G01*
X87585Y42457D02*
G03*
X87585Y42457I-125J0D01*
G01*
X47981Y36485D02*
G03*
X47981Y36485I-125J0D01*
G01*
X26121Y36374D02*
G03*
X26121Y36374I-125J0D01*
G01*
X18894Y34374D02*
G03*
X18894Y34374I-125J0D01*
G01*
X85585Y41109D02*
G03*
X85585Y41109I-125J0D01*
G01*
D12*
X36814Y4620D02*
X52014D01*
Y2120D02*
Y4620D01*
X36814Y2120D02*
X52014D01*
X36814D02*
Y4620D01*
X54594Y2120D02*
Y4620D01*
Y2120D02*
X69794D01*
Y4620D01*
X54594D02*
X69794D01*
X49514Y50380D02*
Y52880D01*
Y50380D02*
X69794D01*
Y52880D01*
X49514D02*
X69794D01*
X27670D02*
X47950D01*
Y50380D02*
Y52880D01*
X27670Y50380D02*
X47950D01*
X27670D02*
Y52880D01*
X-0Y-0D02*
X100000D01*
X-0D02*
Y55000D01*
X100000D01*
Y-0D02*
Y55000D01*
D13*
X21180Y12765D02*
X24180D01*
Y18265D01*
X21180D02*
X24180D01*
X21180Y12765D02*
Y18265D01*
X25584Y19066D02*
X26734D01*
X25584D02*
Y21066D01*
X26734D01*
X29234Y19066D02*
X30384D01*
Y21066D01*
X29234D02*
X30384D01*
X24990Y10090D02*
X26140D01*
X24990D02*
Y12090D01*
X26140D01*
X28640Y10090D02*
X29790D01*
Y12090D01*
X28640D02*
X29790D01*
X32135Y9808D02*
X36235D01*
X32135D02*
Y10559D01*
X36235Y9808D02*
Y10559D01*
X32135Y16309D02*
X36235D01*
X32135Y15559D02*
Y16309D01*
X36235Y15559D02*
Y16309D01*
Y15559D02*
Y16309D01*
X32135Y15559D02*
Y16309D01*
X36235D01*
X76720Y3300D02*
X77870D01*
Y1300D02*
Y3300D01*
X76720Y1300D02*
X77870D01*
X73070Y3300D02*
X74220D01*
X73070Y1300D02*
Y3300D01*
Y1300D02*
X74220D01*
X76720Y5840D02*
X77870D01*
Y3840D02*
Y5840D01*
X76720Y3840D02*
X77870D01*
X73070Y5840D02*
X74220D01*
X73070Y3840D02*
Y5840D01*
Y3840D02*
X74220D01*
X49419Y12895D02*
Y14165D01*
X47019Y14430D02*
X47262Y14673D01*
X47919D01*
X47262Y12387D02*
X47919D01*
X47019Y12630D02*
X47262Y12387D01*
X47019Y12630D02*
Y14430D01*
X51819Y12387D02*
Y14673D01*
X50919Y12387D02*
X51819D01*
X50919Y14673D02*
X51819D01*
X46995Y19135D02*
X50495D01*
X46995D02*
Y20085D01*
Y24885D02*
Y25835D01*
X50495D01*
X94445Y34100D02*
X96250D01*
X83750D02*
X85555D01*
X94445Y20900D02*
X96250D01*
X83750D02*
X85555D01*
X96250Y30800D02*
Y34100D01*
Y20900D02*
Y24200D01*
X83750Y30800D02*
Y34100D01*
Y20900D02*
Y24200D01*
X44746Y8910D02*
X44996D01*
Y11410D01*
X44746D02*
X44996D01*
X41996Y8910D02*
X42246D01*
X41996D02*
Y11410D01*
X42246D01*
X47871Y26357D02*
X48771D01*
X47871Y28643D02*
X48771D01*
X47871Y26357D02*
Y28643D01*
X52671Y26600D02*
Y28400D01*
X52428Y28643D02*
X52671Y28400D01*
X51771Y28643D02*
X52428D01*
X51771Y26357D02*
X52428D01*
X52671Y26600D01*
X50271Y26865D02*
Y28135D01*
X22823Y14193D02*
X23680D01*
X23252Y13765D02*
Y14622D01*
D14*
X30520Y34109D02*
Y35909D01*
X35520Y34109D02*
Y35909D01*
X30520Y34109D02*
X35520D01*
X30520Y35909D02*
X35520D01*
X94699Y42453D02*
Y43653D01*
X91305Y44069D02*
X92505D01*
X89400Y44577D02*
X90600D01*
X85710Y42823D02*
Y43523D01*
Y42823D02*
X86410D01*
X85710Y45823D02*
X86410D01*
X85710Y45123D02*
Y45823D01*
X82860Y45259D02*
X84060D01*
X80860D02*
X82060D01*
X70860Y49897D02*
X72060D01*
X77715Y50029D02*
X78915D01*
X44490Y34735D02*
X45190D01*
X44490D02*
Y35435D01*
X47490Y34735D02*
Y35435D01*
X46790Y34735D02*
X47490D01*
X42072Y37406D02*
X43272D01*
X36230Y39946D02*
X37430D01*
X36230Y35501D02*
X37430D01*
X38135D02*
X39335D01*
X40040Y37406D02*
X41240D01*
X28610Y31056D02*
X29810D01*
X30515Y29024D02*
X31715D01*
X24384Y29440D02*
Y30640D01*
X60995Y41259D02*
X62195D01*
X72220Y28356D02*
Y29556D01*
X62150Y27564D02*
X63350D01*
X89400Y38989D02*
X90600D01*
X94699Y37373D02*
Y38573D01*
X28610Y35374D02*
X29810D01*
X26705D02*
X27905D01*
X22630Y34624D02*
X23330D01*
X22630D02*
Y35324D01*
X25630Y34624D02*
Y35324D01*
X24930Y34624D02*
X25630D01*
X21435Y36124D02*
X22135D01*
Y35424D02*
Y36124D01*
X19135Y35424D02*
Y36124D01*
X19835D01*
X20985Y30890D02*
X22185D01*
X18985Y28858D02*
X20185D01*
X3210Y44645D02*
X4410D01*
X80860Y40259D02*
X82060D01*
X82860D02*
X84060D01*
X87210Y40043D02*
Y40743D01*
X86510D02*
X87210D01*
X86510Y37743D02*
X87210D01*
Y38443D01*
X91305Y39497D02*
X92505D01*
X94699Y39913D02*
Y41113D01*
X26705Y31056D02*
X27905D01*
X79715Y50029D02*
X80915D01*
X55000Y34730D02*
Y35930D01*
X65150Y27564D02*
X66350D01*
X80010Y8290D02*
Y9490D01*
Y6385D02*
Y7585D01*
X55000Y32730D02*
Y33930D01*
X33055Y29024D02*
X34255D01*
X48911Y15470D02*
Y16670D01*
X48626Y35469D02*
X49826D01*
X41656Y33885D02*
Y35085D01*
X37078Y8636D02*
X38278D01*
X82460Y47743D02*
X81760D01*
Y48093D01*
X81877Y48210D01*
X82110D01*
X82227Y48093D01*
Y47743D01*
Y47976D02*
X82460Y48210D01*
X81877Y48443D02*
X81760Y48559D01*
Y48793D01*
X81877Y48909D01*
X81993D01*
X82110Y48793D01*
Y48676D01*
Y48793D01*
X82227Y48909D01*
X82343D01*
X82460Y48793D01*
Y48559D01*
X82343Y48443D01*
X81760Y49609D02*
Y49143D01*
X82110D01*
X81993Y49376D01*
Y49492D01*
X82110Y49609D01*
X82343D01*
X82460Y49492D01*
Y49259D01*
X82343Y49143D01*
X94715Y46013D02*
Y46713D01*
X95065D01*
X95182Y46596D01*
Y46363D01*
X95065Y46246D01*
X94715D01*
X94948D02*
X95182Y46013D01*
X95415Y46596D02*
X95531Y46713D01*
X95765D01*
X95881Y46596D01*
Y46480D01*
X95765Y46363D01*
X95648D01*
X95765D01*
X95881Y46246D01*
Y46130D01*
X95765Y46013D01*
X95531D01*
X95415Y46130D01*
X96464Y46013D02*
Y46713D01*
X96115Y46363D01*
X96581D01*
X92660Y46264D02*
X91960D01*
Y46614D01*
X92077Y46731D01*
X92310D01*
X92427Y46614D01*
Y46264D01*
Y46497D02*
X92660Y46731D01*
X92077Y46964D02*
X91960Y47080D01*
Y47314D01*
X92077Y47430D01*
X92193D01*
X92310Y47314D01*
Y47197D01*
Y47314D01*
X92427Y47430D01*
X92543D01*
X92660Y47314D01*
Y47080D01*
X92543Y46964D01*
X92077Y47664D02*
X91960Y47780D01*
Y48013D01*
X92077Y48130D01*
X92193D01*
X92310Y48013D01*
Y47897D01*
Y48013D01*
X92427Y48130D01*
X92543D01*
X92660Y48013D01*
Y47780D01*
X92543Y47664D01*
X86650Y46635D02*
Y47101D01*
X86533Y47218D01*
X86300D01*
X86183Y47101D01*
Y46635D01*
X86300Y46518D01*
X86533D01*
X86416Y46751D02*
X86650Y46518D01*
X86533D02*
X86650Y46635D01*
X87233Y46518D02*
Y47218D01*
X86883Y46868D01*
X87349D01*
X83877Y48240D02*
X83760Y48123D01*
Y47890D01*
X83877Y47773D01*
X84343D01*
X84460Y47890D01*
Y48123D01*
X84343Y48240D01*
X83877Y48473D02*
X83760Y48589D01*
Y48823D01*
X83877Y48939D01*
X83993D01*
X84110Y48823D01*
Y48706D01*
Y48823D01*
X84227Y48939D01*
X84343D01*
X84460Y48823D01*
Y48589D01*
X84343Y48473D01*
X84460Y49173D02*
Y49406D01*
Y49289D01*
X83760D01*
X83877Y49173D01*
X90172Y47112D02*
X90055Y46995D01*
Y46762D01*
X90172Y46645D01*
X90638D01*
X90755Y46762D01*
Y46995D01*
X90638Y47112D01*
X90755Y47345D02*
Y47578D01*
Y47461D01*
X90055D01*
X90172Y47345D01*
X90755Y48278D02*
X90055D01*
X90405Y47928D01*
Y48394D01*
X75925Y8495D02*
Y9195D01*
X76275D01*
X76392Y9078D01*
Y8845D01*
X76275Y8728D01*
X75925D01*
X76158D02*
X76392Y8495D01*
X77091D02*
X76625D01*
X77091Y8962D01*
Y9078D01*
X76975Y9195D01*
X76741D01*
X76625Y9078D01*
X77325D02*
X77441Y9195D01*
X77674D01*
X77791Y9078D01*
Y8962D01*
X77674Y8845D01*
X77791Y8728D01*
Y8612D01*
X77674Y8495D01*
X77441D01*
X77325Y8612D01*
Y8728D01*
X77441Y8845D01*
X77325Y8962D01*
Y9078D01*
X77441Y8845D02*
X77674D01*
X75925Y6590D02*
Y7290D01*
X76275D01*
X76392Y7173D01*
Y6940D01*
X76275Y6823D01*
X75925D01*
X76158D02*
X76392Y6590D01*
X77091D02*
X76625D01*
X77091Y7057D01*
Y7173D01*
X76975Y7290D01*
X76741D01*
X76625Y7173D01*
X77325Y7290D02*
X77791D01*
Y7173D01*
X77325Y6707D01*
Y6590D01*
X19433Y31618D02*
X19316Y31501D01*
Y31268D01*
X19433Y31151D01*
X19899D01*
X20016Y31268D01*
Y31501D01*
X19899Y31618D01*
X20016Y31851D02*
Y32084D01*
Y31967D01*
X19316D01*
X19433Y31851D01*
X20016Y32900D02*
Y32434D01*
X19549Y32900D01*
X19433D01*
X19316Y32784D01*
Y32551D01*
X19433Y32434D01*
X27434Y27554D02*
X27317Y27437D01*
Y27204D01*
X27434Y27087D01*
X27900D01*
X28017Y27204D01*
Y27437D01*
X27900Y27554D01*
X28017Y27787D02*
Y28020D01*
Y27903D01*
X27317D01*
X27434Y27787D01*
Y28370D02*
X27317Y28487D01*
Y28720D01*
X27434Y28836D01*
X27900D01*
X28017Y28720D01*
Y28487D01*
X27900Y28370D01*
X27434D01*
X97191Y37957D02*
X97074Y38074D01*
X96841D01*
X96724Y37957D01*
Y37491D01*
X96841Y37374D01*
X97074D01*
X97191Y37491D01*
X97890Y37374D02*
X97424D01*
X97890Y37841D01*
Y37957D01*
X97774Y38074D01*
X97540D01*
X97424Y37957D01*
X98124D02*
X98240Y38074D01*
X98473D01*
X98590Y37957D01*
Y37841D01*
X98473Y37724D01*
X98590Y37607D01*
Y37491D01*
X98473Y37374D01*
X98240D01*
X98124Y37491D01*
Y37607D01*
X98240Y37724D01*
X98124Y37841D01*
Y37957D01*
X98240Y37724D02*
X98473D01*
X24000Y27860D02*
Y28560D01*
X24350D01*
X24467Y28443D01*
Y28210D01*
X24350Y28093D01*
X24000D01*
X24233D02*
X24467Y27860D01*
X24700Y28443D02*
X24816Y28560D01*
X25050D01*
X25166Y28443D01*
Y28327D01*
X25050Y28210D01*
X24933D01*
X25050D01*
X25166Y28093D01*
Y27977D01*
X25050Y27860D01*
X24816D01*
X24700Y27977D01*
X25866Y27860D02*
X25400D01*
X25866Y28327D01*
Y28443D01*
X25749Y28560D01*
X25516D01*
X25400Y28443D01*
X29922Y27087D02*
X29222D01*
Y27437D01*
X29339Y27554D01*
X29572D01*
X29689Y27437D01*
Y27087D01*
Y27320D02*
X29922Y27554D01*
X29339Y27787D02*
X29222Y27903D01*
Y28137D01*
X29339Y28253D01*
X29455D01*
X29572Y28137D01*
Y28020D01*
Y28137D01*
X29689Y28253D01*
X29805D01*
X29922Y28137D01*
Y27903D01*
X29805Y27787D01*
X29922Y28487D02*
Y28720D01*
Y28603D01*
X29222D01*
X29339Y28487D01*
X26112Y52425D02*
Y51842D01*
X26229Y51725D01*
X26462D01*
X26579Y51842D01*
Y52425D01*
X26812Y51725D02*
X27045D01*
X26928D01*
Y52425D01*
X26812Y52308D01*
X74515Y46513D02*
X75098D01*
X75215Y46630D01*
Y46863D01*
X75098Y46980D01*
X74515D01*
Y47213D02*
Y47679D01*
X74632D01*
X75098Y47213D01*
X75215D01*
X49165Y18675D02*
Y18092D01*
X49282Y17975D01*
X49515D01*
X49632Y18092D01*
Y18675D01*
X50331D02*
X49865D01*
Y18325D01*
X50098Y18442D01*
X50215D01*
X50331Y18325D01*
Y18092D01*
X50215Y17975D01*
X49981D01*
X49865Y18092D01*
X35826Y30389D02*
X36409D01*
X36526Y30506D01*
Y30739D01*
X36409Y30856D01*
X35826D01*
X36526Y31555D02*
Y31089D01*
X36059Y31555D01*
X35943D01*
X35826Y31439D01*
Y31205D01*
X35943Y31089D01*
X70308Y47534D02*
X69608D01*
Y47884D01*
X69725Y48001D01*
X69958D01*
X70075Y47884D01*
Y47534D01*
Y47767D02*
X70308Y48001D01*
Y48234D02*
Y48467D01*
Y48350D01*
X69608D01*
X69725Y48234D01*
X70191Y48817D02*
X70308Y48934D01*
Y49167D01*
X70191Y49283D01*
X69725D01*
X69608Y49167D01*
Y48934D01*
X69725Y48817D01*
X69841D01*
X69958Y48934D01*
Y49283D01*
X78944Y51979D02*
X78244D01*
Y52329D01*
X78361Y52446D01*
X78594D01*
X78711Y52329D01*
Y51979D01*
Y52212D02*
X78944Y52446D01*
Y52679D02*
Y52912D01*
Y52795D01*
X78244D01*
X78361Y52679D01*
Y53262D02*
X78244Y53379D01*
Y53612D01*
X78361Y53728D01*
X78477D01*
X78594Y53612D01*
X78711Y53728D01*
X78827D01*
X78944Y53612D01*
Y53379D01*
X78827Y53262D01*
X78711D01*
X78594Y53379D01*
X78477Y53262D01*
X78361D01*
X78594Y53379D02*
Y53612D01*
X56980Y33136D02*
Y33836D01*
X57330D01*
X57447Y33719D01*
Y33486D01*
X57330Y33369D01*
X56980D01*
X57213D02*
X57447Y33136D01*
X58146D02*
X57680D01*
X58146Y33603D01*
Y33719D01*
X58030Y33836D01*
X57796D01*
X57680Y33719D01*
X58846Y33836D02*
X58380D01*
Y33486D01*
X58613Y33603D01*
X58729D01*
X58846Y33486D01*
Y33253D01*
X58729Y33136D01*
X58496D01*
X58380Y33253D01*
X63330Y29961D02*
X62630D01*
Y30311D01*
X62747Y30428D01*
X62980D01*
X63097Y30311D01*
Y29961D01*
Y30194D02*
X63330Y30428D01*
Y31127D02*
Y30661D01*
X62863Y31127D01*
X62747D01*
X62630Y31011D01*
Y30777D01*
X62747Y30661D01*
Y31361D02*
X62630Y31477D01*
Y31710D01*
X62747Y31827D01*
X62863D01*
X62980Y31710D01*
Y31594D01*
Y31710D01*
X63097Y31827D01*
X63213D01*
X63330Y31710D01*
Y31477D01*
X63213Y31361D01*
X72220Y26786D02*
Y27486D01*
X72570D01*
X72687Y27369D01*
Y27136D01*
X72570Y27019D01*
X72220D01*
X72453D02*
X72687Y26786D01*
X73386D02*
X72920D01*
X73386Y27253D01*
Y27369D01*
X73270Y27486D01*
X73036D01*
X72920Y27369D01*
X73969Y26786D02*
Y27486D01*
X73620Y27136D01*
X74086D01*
X91009Y36358D02*
Y37058D01*
X91359D01*
X91476Y36941D01*
Y36708D01*
X91359Y36591D01*
X91009D01*
X91242D02*
X91476Y36358D01*
X91709D02*
X91942D01*
X91825D01*
Y37058D01*
X91709Y36941D01*
X92292D02*
X92409Y37058D01*
X92642D01*
X92758Y36941D01*
Y36825D01*
X92642Y36708D01*
X92525D01*
X92642D01*
X92758Y36591D01*
Y36475D01*
X92642Y36358D01*
X92409D01*
X92292Y36475D01*
X5792Y44613D02*
X5092D01*
Y44963D01*
X5209Y45080D01*
X5442D01*
X5559Y44963D01*
Y44613D01*
Y44846D02*
X5792Y45080D01*
Y45313D02*
Y45546D01*
Y45429D01*
X5092D01*
X5209Y45313D01*
X5792Y46246D02*
X5092D01*
X5442Y45896D01*
Y46362D01*
X82119Y36358D02*
X81419D01*
Y36708D01*
X81536Y36825D01*
X81769D01*
X81886Y36708D01*
Y36358D01*
Y36591D02*
X82119Y36825D01*
Y37058D02*
Y37291D01*
Y37174D01*
X81419D01*
X81536Y37058D01*
X81419Y38107D02*
X81536Y37874D01*
X81769Y37641D01*
X82002D01*
X82119Y37758D01*
Y37991D01*
X82002Y38107D01*
X81886D01*
X81769Y37991D01*
Y37641D01*
X94715Y44513D02*
Y45213D01*
X95065D01*
X95182Y45096D01*
Y44863D01*
X95065Y44746D01*
X94715D01*
X94948D02*
X95182Y44513D01*
X95415D02*
X95648D01*
X95531D01*
Y45213D01*
X95415Y45096D01*
X96464Y45213D02*
X95998D01*
Y44863D01*
X96231Y44980D01*
X96348D01*
X96464Y44863D01*
Y44630D01*
X96348Y44513D01*
X96115D01*
X95998Y44630D01*
X29922Y37755D02*
X29222D01*
Y38105D01*
X29339Y38222D01*
X29572D01*
X29689Y38105D01*
Y37755D01*
Y37988D02*
X29922Y38222D01*
X29805Y38455D02*
X29922Y38571D01*
Y38805D01*
X29805Y38921D01*
X29339D01*
X29222Y38805D01*
Y38571D01*
X29339Y38455D01*
X29455D01*
X29572Y38571D01*
Y38921D01*
X36780Y42454D02*
X36080D01*
Y42804D01*
X36197Y42921D01*
X36430D01*
X36547Y42804D01*
Y42454D01*
Y42687D02*
X36780Y42921D01*
X36197Y43154D02*
X36080Y43270D01*
Y43504D01*
X36197Y43620D01*
X36313D01*
X36430Y43504D01*
X36547Y43620D01*
X36663D01*
X36780Y43504D01*
Y43270D01*
X36663Y43154D01*
X36547D01*
X36430Y43270D01*
X36313Y43154D01*
X36197D01*
X36430Y43270D02*
Y43504D01*
X39574Y32167D02*
X38874D01*
Y32517D01*
X38991Y32634D01*
X39224D01*
X39341Y32517D01*
Y32167D01*
Y32400D02*
X39574Y32634D01*
X38874Y32867D02*
Y33333D01*
X38991D01*
X39457Y32867D01*
X39574D01*
X49861Y37628D02*
X49161D01*
Y37978D01*
X49278Y38095D01*
X49511D01*
X49628Y37978D01*
Y37628D01*
Y37861D02*
X49861Y38095D01*
X49161Y38794D02*
X49278Y38561D01*
X49511Y38328D01*
X49744D01*
X49861Y38444D01*
Y38678D01*
X49744Y38794D01*
X49628D01*
X49511Y38678D01*
Y38328D01*
X42270Y32625D02*
Y33325D01*
X42620D01*
X42737Y33208D01*
Y32975D01*
X42620Y32858D01*
X42270D01*
X42503D02*
X42737Y32625D01*
X43436Y33325D02*
X42970D01*
Y32975D01*
X43203Y33092D01*
X43320D01*
X43436Y32975D01*
Y32742D01*
X43320Y32625D01*
X43086D01*
X42970Y32742D01*
X22175Y27468D02*
X21475D01*
Y27818D01*
X21592Y27935D01*
X21825D01*
X21942Y27818D01*
Y27468D01*
Y27701D02*
X22175Y27935D01*
Y28634D02*
Y28168D01*
X21708Y28634D01*
X21592D01*
X21475Y28518D01*
Y28284D01*
X21592Y28168D01*
X37669Y32167D02*
X36969D01*
Y32517D01*
X37086Y32634D01*
X37319D01*
X37436Y32517D01*
Y32167D01*
Y32400D02*
X37669Y32634D01*
Y32867D02*
Y33100D01*
Y32983D01*
X36969D01*
X37086Y32867D01*
X86015Y36602D02*
Y37068D01*
X85898Y37185D01*
X85665D01*
X85548Y37068D01*
Y36602D01*
X85665Y36485D01*
X85898D01*
X85781Y36718D02*
X86015Y36485D01*
X85898D02*
X86015Y36602D01*
X86714Y36485D02*
X86248D01*
X86714Y36952D01*
Y37068D01*
X86598Y37185D01*
X86364D01*
X86248Y37068D01*
X46315Y38222D02*
X45849D01*
X45732Y38105D01*
Y37872D01*
X45849Y37755D01*
X46315D01*
X46432Y37872D01*
Y38105D01*
X46199Y37988D02*
X46432Y38222D01*
Y38105D02*
X46315Y38222D01*
X46432Y38455D02*
Y38688D01*
Y38571D01*
X45732D01*
X45849Y38455D01*
X45716Y9770D02*
Y9070D01*
X46183D01*
X46416D02*
X46649D01*
X46532D01*
Y9770D01*
X46416Y9653D01*
X34244Y9261D02*
X33777D01*
Y8911D01*
X34010D01*
X33777D01*
Y8561D01*
X34943D02*
X34477D01*
X34943Y9028D01*
Y9144D01*
X34827Y9261D01*
X34593D01*
X34477Y9144D01*
X95204Y20310D02*
X94737D01*
Y19610D01*
X95204D01*
X94737Y19960D02*
X94970D01*
X95437Y19610D02*
Y20310D01*
X95903Y19610D01*
Y20310D01*
X96137Y19610D02*
X96370D01*
X96253D01*
Y20310D01*
X96137Y20193D01*
X71480Y4750D02*
Y4050D01*
X71830D01*
X71947Y4167D01*
Y4633D01*
X71830Y4750D01*
X71480D01*
X72646D02*
X72413Y4633D01*
X72180Y4400D01*
Y4167D01*
X72296Y4050D01*
X72530D01*
X72646Y4167D01*
Y4283D01*
X72530Y4400D01*
X72180D01*
X71480Y2210D02*
Y1510D01*
X71830D01*
X71947Y1627D01*
Y2093D01*
X71830Y2210D01*
X71480D01*
X72180Y2093D02*
X72296Y2210D01*
X72530D01*
X72646Y2093D01*
Y1977D01*
X72530Y1860D01*
X72413D01*
X72530D01*
X72646Y1743D01*
Y1627D01*
X72530Y1510D01*
X72296D01*
X72180Y1627D01*
X29160Y18516D02*
Y17816D01*
X29510D01*
X29627Y17933D01*
Y18399D01*
X29510Y18516D01*
X29160D01*
X30326D02*
X29860D01*
Y18166D01*
X30093Y18283D01*
X30210D01*
X30326Y18166D01*
Y17933D01*
X30210Y17816D01*
X29976D01*
X29860Y17933D01*
X28652Y9626D02*
Y8926D01*
X29002D01*
X29119Y9043D01*
Y9509D01*
X29002Y9626D01*
X28652D01*
X29702Y8926D02*
Y9626D01*
X29352Y9276D01*
X29818D01*
X23761Y37755D02*
X24461D01*
Y38105D01*
X24344Y38222D01*
X23878D01*
X23761Y38105D01*
Y37755D01*
X24461Y38921D02*
Y38455D01*
X23994Y38921D01*
X23878D01*
X23761Y38805D01*
Y38571D01*
X23878Y38455D01*
X20332Y37755D02*
X21032D01*
Y38105D01*
X20915Y38222D01*
X20449D01*
X20332Y38105D01*
Y37755D01*
X21032Y38455D02*
Y38688D01*
Y38571D01*
X20332D01*
X20449Y38455D01*
X65287Y24078D02*
X65170Y23961D01*
Y23728D01*
X65287Y23611D01*
X65753D01*
X65870Y23728D01*
Y23961D01*
X65753Y24078D01*
X65870Y24777D02*
Y24311D01*
X65403Y24777D01*
X65287D01*
X65170Y24661D01*
Y24427D01*
X65287Y24311D01*
X65170Y25011D02*
Y25477D01*
X65287D01*
X65753Y25011D01*
X65870D01*
X57447Y35624D02*
X57330Y35741D01*
X57097D01*
X56980Y35624D01*
Y35158D01*
X57097Y35041D01*
X57330D01*
X57447Y35158D01*
X58146Y35041D02*
X57680D01*
X58146Y35508D01*
Y35624D01*
X58030Y35741D01*
X57796D01*
X57680Y35624D01*
X58846Y35741D02*
X58613Y35624D01*
X58380Y35391D01*
Y35158D01*
X58496Y35041D01*
X58729D01*
X58846Y35158D01*
Y35274D01*
X58729Y35391D01*
X58380D01*
X33657Y25522D02*
X33540Y25405D01*
Y25172D01*
X33657Y25055D01*
X34123D01*
X34240Y25172D01*
Y25405D01*
X34123Y25522D01*
X34240Y26221D02*
Y25755D01*
X33773Y26221D01*
X33657D01*
X33540Y26105D01*
Y25871D01*
X33657Y25755D01*
X33540Y26921D02*
Y26455D01*
X33890D01*
X33773Y26688D01*
Y26804D01*
X33890Y26921D01*
X34123D01*
X34240Y26804D01*
Y26571D01*
X34123Y26455D01*
X61477Y37413D02*
X61360Y37296D01*
Y37063D01*
X61477Y36946D01*
X61943D01*
X62060Y37063D01*
Y37296D01*
X61943Y37413D01*
X62060Y38112D02*
Y37646D01*
X61593Y38112D01*
X61477D01*
X61360Y37996D01*
Y37762D01*
X61477Y37646D01*
Y38346D02*
X61360Y38462D01*
Y38695D01*
X61477Y38812D01*
X61943D01*
X62060Y38695D01*
Y38462D01*
X61943Y38346D01*
X61477D01*
X37845Y11389D02*
X37728Y11272D01*
Y11039D01*
X37845Y10922D01*
X38311D01*
X38428Y11039D01*
Y11272D01*
X38311Y11389D01*
X38428Y11622D02*
Y11855D01*
Y11738D01*
X37728D01*
X37845Y11622D01*
Y12205D02*
X37728Y12322D01*
Y12555D01*
X37845Y12671D01*
X37961D01*
X38078Y12555D01*
Y12438D01*
Y12555D01*
X38195Y12671D01*
X38311D01*
X38428Y12555D01*
Y12322D01*
X38311Y12205D01*
X51537Y16018D02*
X51420Y16135D01*
X51187D01*
X51070Y16018D01*
Y15552D01*
X51187Y15435D01*
X51420D01*
X51537Y15552D01*
X51770Y15435D02*
X52003D01*
X51886D01*
Y16135D01*
X51770Y16018D01*
X52353D02*
X52470Y16135D01*
X52703D01*
X52819Y16018D01*
Y15902D01*
X52703Y15785D01*
X52819Y15668D01*
Y15552D01*
X52703Y15435D01*
X52470D01*
X52353Y15552D01*
Y15668D01*
X52470Y15785D01*
X52353Y15902D01*
Y16018D01*
X52470Y15785D02*
X52703D01*
X52807Y13633D02*
X52690Y13750D01*
X52457D01*
X52340Y13633D01*
Y13167D01*
X52457Y13050D01*
X52690D01*
X52807Y13167D01*
X53040Y13050D02*
X53273D01*
X53156D01*
Y13750D01*
X53040Y13633D01*
X53623Y13750D02*
X54089D01*
Y13633D01*
X53623Y13167D01*
Y13050D01*
X53503Y27162D02*
X53386Y27279D01*
X53153D01*
X53036Y27162D01*
Y26696D01*
X53153Y26579D01*
X53386D01*
X53503Y26696D01*
X53736Y26579D02*
X53969D01*
X53852D01*
Y27279D01*
X53736Y27162D01*
X54785Y27279D02*
X54552Y27162D01*
X54319Y26929D01*
Y26696D01*
X54436Y26579D01*
X54669D01*
X54785Y26696D01*
Y26812D01*
X54669Y26929D01*
X54319D01*
X31117Y25522D02*
X31000Y25405D01*
Y25172D01*
X31117Y25055D01*
X31583D01*
X31700Y25172D01*
Y25405D01*
X31583Y25522D01*
X31700Y25755D02*
Y25988D01*
Y25871D01*
X31000D01*
X31117Y25755D01*
X31000Y26804D02*
Y26338D01*
X31350D01*
X31233Y26571D01*
Y26688D01*
X31350Y26804D01*
X31583D01*
X31700Y26688D01*
Y26455D01*
X31583Y26338D01*
X83568Y36825D02*
X83451Y36708D01*
Y36475D01*
X83568Y36358D01*
X84034D01*
X84151Y36475D01*
Y36708D01*
X84034Y36825D01*
Y37058D02*
X84151Y37174D01*
Y37408D01*
X84034Y37524D01*
X83568D01*
X83451Y37408D01*
Y37174D01*
X83568Y37058D01*
X83684D01*
X83801Y37174D01*
Y37524D01*
X90172Y41651D02*
X90055Y41534D01*
Y41301D01*
X90172Y41184D01*
X90638D01*
X90755Y41301D01*
Y41534D01*
X90638Y41651D01*
X90172Y41884D02*
X90055Y42000D01*
Y42234D01*
X90172Y42350D01*
X90288D01*
X90405Y42234D01*
X90522Y42350D01*
X90638D01*
X90755Y42234D01*
Y42000D01*
X90638Y41884D01*
X90522D01*
X90405Y42000D01*
X90288Y41884D01*
X90172D01*
X90405Y42000D02*
Y42234D01*
X40642Y40127D02*
X40525Y40010D01*
Y39777D01*
X40642Y39660D01*
X41108D01*
X41225Y39777D01*
Y40010D01*
X41108Y40127D01*
X40525Y40826D02*
X40642Y40593D01*
X40875Y40360D01*
X41108D01*
X41225Y40476D01*
Y40710D01*
X41108Y40826D01*
X40992D01*
X40875Y40710D01*
Y40360D01*
X42674Y40127D02*
X42557Y40010D01*
Y39777D01*
X42674Y39660D01*
X43140D01*
X43257Y39777D01*
Y40010D01*
X43140Y40127D01*
X42557Y40826D02*
Y40360D01*
X42907D01*
X42790Y40593D01*
Y40710D01*
X42907Y40826D01*
X43140D01*
X43257Y40710D01*
Y40476D01*
X43140Y40360D01*
X27307Y38222D02*
X27190Y38105D01*
Y37872D01*
X27307Y37755D01*
X27773D01*
X27890Y37872D01*
Y38105D01*
X27773Y38222D01*
X27890Y38921D02*
Y38455D01*
X27423Y38921D01*
X27307D01*
X27190Y38805D01*
Y38571D01*
X27307Y38455D01*
X80393Y52446D02*
X80276Y52329D01*
Y52096D01*
X80393Y51979D01*
X80859D01*
X80976Y52096D01*
Y52329D01*
X80859Y52446D01*
X80976Y52679D02*
Y52912D01*
Y52795D01*
X80276D01*
X80393Y52679D01*
X23191Y12293D02*
Y11593D01*
X23541D01*
X23658Y11710D01*
Y11826D01*
X23541Y11943D01*
X23191D01*
X23541D01*
X23658Y12060D01*
Y12176D01*
X23541Y12293D01*
X23191D01*
X23891Y11593D02*
X24124D01*
X24007D01*
Y12293D01*
X23891Y12176D01*
D15*
X74515Y48513D02*
X75515D01*
X74515Y51413D02*
X75515D01*
D16*
X59000Y11000D02*
D03*
D17*
X60500Y15000D02*
D03*
D18*
X60778Y10865D02*
D03*
D19*
X63500Y15000D02*
D03*
D20*
X62500Y7000D02*
D03*
M02*
