G04*
G04 #@! TF.GenerationSoftware,Altium Limited,Altium Designer,22.2.1 (43)*
G04*
G04 Layer_Physical_Order=2*
G04 Layer_Color=16711680*
%FSLAX43Y43*%
%MOMM*%
G71*
G04*
G04 #@! TF.SameCoordinates,4727E17F-0EAD-4C76-84FB-9B022A49384D*
G04*
G04*
G04 #@! TF.FilePolarity,Positive*
G04*
G01*
G75*
%ADD12C,0.254*%
%ADD45R,1.000X1.300*%
%ADD46R,1.300X1.000*%
%ADD56C,0.300*%
%ADD57C,0.500*%
%ADD58C,0.400*%
%ADD60C,1.700*%
%ADD61C,1.800*%
%ADD62C,3.000*%
%ADD63C,2.600*%
%ADD64O,4.000X3.500*%
%ADD65O,3.500X4.200*%
%ADD66O,2.000X2.300*%
%ADD67C,1.100*%
%ADD68C,0.750*%
%ADD69R,1.200X0.300*%
%ADD70R,0.300X1.200*%
%ADD71R,3.800X1.600*%
%ADD72R,1.200X0.600*%
%ADD73R,1.300X3.700*%
%ADD74R,10.300X9.000*%
%ADD75O,2.200X0.600*%
%ADD76C,1.500*%
%ADD77C,1.200*%
D12*
X-0Y-0D02*
X100000D01*
X-0D02*
Y55000D01*
X100000D01*
Y-0D02*
Y55000D01*
D45*
X46686Y30770D02*
D03*
X44654D02*
D03*
X28820Y47235D02*
D03*
X30852D02*
D03*
X24502D02*
D03*
X26534D02*
D03*
X22458Y44845D02*
D03*
X24490D02*
D03*
X11405Y29620D02*
D03*
X13437D02*
D03*
X90000Y31866D02*
D03*
X87968D02*
D03*
X53754Y39616D02*
D03*
X55786D02*
D03*
X28820Y45330D02*
D03*
X30852D02*
D03*
X26534Y37075D02*
D03*
X24502D02*
D03*
X24490Y42940D02*
D03*
X22458D02*
D03*
Y41035D02*
D03*
X24490D02*
D03*
X22458Y39118D02*
D03*
X24490D02*
D03*
X32846Y36345D02*
D03*
X34878D02*
D03*
D46*
X9500Y34065D02*
D03*
Y36097D02*
D03*
X93000Y25516D02*
D03*
Y23484D02*
D03*
X91000Y25516D02*
D03*
Y23484D02*
D03*
X87000D02*
D03*
Y25516D02*
D03*
X89000Y23484D02*
D03*
Y25516D02*
D03*
X87000Y27675D02*
D03*
Y29707D02*
D03*
X43378Y38829D02*
D03*
Y40861D02*
D03*
D56*
X48620Y40511D02*
Y52077D01*
X47702Y52995D02*
X48620Y52077D01*
X45525Y52995D02*
X47702D01*
X44160Y51630D02*
X45525Y52995D01*
X83400Y27750D02*
X87000D01*
X41278Y40885D02*
X43378D01*
X54941Y38771D02*
X55786Y39616D01*
X54941Y37873D02*
Y38771D01*
Y37873D02*
X55234Y37580D01*
X55786Y39616D02*
Y41290D01*
X52655Y40821D02*
X63464Y51630D01*
X52655Y37746D02*
Y40821D01*
Y37746D02*
X54321Y36080D01*
X50655Y32580D02*
X56250D01*
X50115Y32040D02*
X50655Y32580D01*
X49226Y32040D02*
X50115D01*
X48845D02*
X49226D01*
X75284Y45482D02*
X76315Y46513D01*
X65167Y45482D02*
X75284D01*
X62250Y42565D02*
X65167Y45482D01*
X61750Y40080D02*
Y43335D01*
X65772Y47357D02*
X71460Y47357D01*
X35560Y26035D02*
X40295Y30770D01*
X44654D01*
X19050Y29845D02*
X19685Y30480D01*
X19050Y27940D02*
Y29845D01*
Y27940D02*
X20955Y26035D01*
X52330Y31080D02*
X56250D01*
X51425Y32080D02*
X56250D01*
X50115Y30770D02*
X51425Y32080D01*
X46686Y30770D02*
X50115D01*
X51385Y34571D02*
Y34580D01*
Y34571D02*
X52376Y33580D01*
X51376Y34580D02*
X51385D01*
X47611Y38345D02*
X51376Y34580D01*
X46700Y41161D02*
X52781Y35080D01*
X44331Y34485D02*
X45736Y33080D01*
X78465Y20560D02*
Y39130D01*
X66004Y8099D02*
X78465Y20560D01*
X66004Y3370D02*
Y8099D01*
X71250Y15885D02*
Y30080D01*
X63464Y8099D02*
X71250Y15885D01*
X63464Y3370D02*
Y8099D01*
X70250Y16790D02*
Y30330D01*
X60924Y7464D02*
X70250Y16790D01*
X60924Y3370D02*
Y7464D01*
X57000Y20685D02*
Y29580D01*
X55844Y19529D02*
X57000Y20685D01*
X55844Y3370D02*
Y19529D01*
X58384Y3370D02*
Y19686D01*
X57555Y20515D02*
X58384Y19686D01*
X46700Y41161D02*
Y51630D01*
X48620Y40511D02*
X53551Y35580D01*
X62250Y40080D02*
Y42565D01*
X61750Y43335D02*
X65772Y47357D01*
X65913Y44243D02*
X78960D01*
X64250Y42580D02*
X65913Y44243D01*
X64250Y40080D02*
Y42580D01*
X66040Y43180D02*
X76955D01*
X64750Y41890D02*
X66040Y43180D01*
X64750Y40080D02*
Y41890D01*
X65580Y41910D02*
X66675D01*
X65250Y41580D02*
X65580Y41910D01*
X65250Y40080D02*
Y41580D01*
X69250Y32080D02*
X71250Y30080D01*
X67750Y32080D02*
X69250D01*
X69750Y32580D02*
X73374Y28956D01*
X67750Y32580D02*
X69750D01*
X73374Y28956D02*
X76030D01*
X70750Y33080D02*
X71750Y32080D01*
X67750Y33080D02*
X70750D01*
X69000Y31580D02*
X70250Y30330D01*
X67750Y31580D02*
X69000D01*
X69250Y29830D02*
Y30580D01*
X68750Y31080D02*
X69250Y30580D01*
X67750Y31080D02*
X68750D01*
X87500Y29961D02*
Y34750D01*
X75129Y37830D02*
X77085Y35874D01*
X71255Y37830D02*
X75129D01*
X69505Y36080D02*
X71255Y37830D01*
X69490Y35080D02*
X70990Y36580D01*
X93961Y27750D02*
X96600D01*
X93000Y26789D02*
X93961Y27750D01*
X93000Y25516D02*
Y26789D01*
X87000Y25516D02*
Y27675D01*
X77520Y41345D02*
X79375Y39490D01*
X71790Y41345D02*
X77520D01*
X68525Y38080D02*
X71790Y41345D01*
X65750Y38580D02*
Y40080D01*
X37878Y42345D02*
X39338Y40885D01*
X41278D01*
X43378Y38345D02*
X47611D01*
X41278D02*
X43378D01*
X17805Y28610D02*
Y31525D01*
X19685Y30480D02*
Y33230D01*
X18850Y34065D02*
X19685Y33230D01*
X17805Y34065D02*
X18850D01*
X72325Y40400D02*
X77195D01*
X69005Y37080D02*
X72325Y40400D01*
X67750Y37080D02*
X69005D01*
X71918Y39243D02*
X76665D01*
X69255Y36580D02*
X71918Y39243D01*
X67750Y36580D02*
X69255D01*
X67750Y36080D02*
X69505D01*
X67750Y38080D02*
X68525D01*
X70990Y36580D02*
X74750D01*
X70750Y35580D02*
X73750D01*
X69750Y34580D02*
X70750Y35580D01*
X67750Y35080D02*
X69490D01*
X67750Y34580D02*
X69750D01*
X77195Y40400D02*
X78465Y39130D01*
X79375Y15240D02*
Y39490D01*
X80645Y18415D02*
Y39490D01*
X76955Y43180D02*
X80645Y39490D01*
X57555Y20515D02*
Y29385D01*
X60250Y26745D02*
X60960Y26035D01*
X60250Y26745D02*
Y28580D01*
X45736Y33080D02*
X56250D01*
X53551Y35580D02*
X56250D01*
X53754Y37917D02*
Y39616D01*
Y37917D02*
X54591Y37080D01*
X56250D01*
X55234Y37580D02*
X56250D01*
X54321Y36080D02*
X56250D01*
X70750Y34580D02*
X72750D01*
X62750Y25175D02*
Y28580D01*
X66645Y41940D02*
X66675Y41910D01*
X52781Y35080D02*
X56250D01*
X52376Y33580D02*
X56250D01*
X67750D02*
X71750D01*
X79375Y15240D02*
X83820Y10795D01*
X85090Y12065D02*
X86360Y10795D01*
X85090Y12065D02*
Y13970D01*
X80645Y18415D02*
X85090Y13970D01*
X92850Y23484D02*
X93000D01*
X92500Y23134D02*
X92850Y23484D01*
X92500Y20250D02*
Y23134D01*
X87000Y23484D02*
X87150D01*
X87500Y23134D01*
Y20250D02*
Y23134D01*
X70250Y34080D02*
X70750Y34580D01*
X67750Y34080D02*
X70250D01*
X64840Y20250D02*
X68580D01*
X59250Y25840D02*
X64840Y20250D01*
X59250Y25840D02*
Y28580D01*
X64770Y18415D02*
X68580D01*
X58750Y24435D02*
X64770Y18415D01*
X58750Y24435D02*
Y28580D01*
X55880Y23495D02*
Y30580D01*
X58250Y23030D02*
X59055Y22225D01*
X58250Y23030D02*
Y28580D01*
X57555Y29385D02*
X59750Y31580D01*
X55880Y30580D02*
X56250D01*
X56250Y32580D02*
X56250Y32580D01*
X57674Y37580D02*
X57750D01*
X57174Y38080D02*
X57674Y37580D01*
X56250Y38080D02*
X57174D01*
X59750Y31580D02*
Y37580D01*
X57500Y36580D02*
X59000Y35080D01*
Y31580D02*
Y35080D01*
X57000Y29580D02*
X59000Y31580D01*
X57674Y32080D02*
X57750D01*
X57174Y31580D02*
X57674Y32080D01*
X56250Y31580D02*
X57174D01*
X58250Y39080D02*
X59750Y37580D01*
X58250Y39080D02*
Y40080D01*
X59750Y29580D02*
X60250Y30080D01*
X59750Y28580D02*
Y29580D01*
X65750Y28580D02*
Y30580D01*
X67750D01*
X56250Y36580D02*
X57500D01*
X87150Y23484D02*
X89000D01*
X91000D02*
X92850D01*
D57*
X13437Y29620D02*
X14605D01*
X11405D02*
Y31525D01*
X13335Y32185D02*
Y34675D01*
X12065Y35945D02*
X13335Y34675D01*
X12065Y35945D02*
Y38370D01*
X12675Y31525D02*
X13335Y32185D01*
X11405Y31525D02*
X12675D01*
D58*
X30585Y40250D02*
Y47610D01*
X32350Y33175D02*
Y39615D01*
X71780Y49516D02*
X74638Y52374D01*
X65703Y49516D02*
X71780D01*
X59960Y43773D02*
X65703Y49516D01*
X24502Y44845D02*
Y47235D01*
X90000Y28691D02*
Y31866D01*
Y25516D02*
Y28691D01*
X34878Y36345D02*
Y38345D01*
X14605Y49970D02*
X15934Y48641D01*
X14605Y49970D02*
X15255D01*
X30585Y40250D02*
X31220Y39615D01*
X28820Y43425D02*
Y45330D01*
X22470Y41035D02*
Y46595D01*
Y28575D02*
Y41035D01*
X27035Y45330D02*
X28820D01*
X22470Y12065D02*
Y17145D01*
Y6350D02*
Y12065D01*
X34195Y19610D02*
Y31330D01*
X32350Y33175D02*
X34195Y31330D01*
X26534Y21971D02*
Y37075D01*
X24502Y39118D02*
Y40885D01*
X22470Y17145D02*
Y28575D01*
X9500Y34065D02*
X11405D01*
X6985Y36097D02*
X9500D01*
X24502Y42928D02*
Y44845D01*
X26425Y42155D02*
X27550D01*
X25652Y42928D02*
X26425Y42155D01*
X24502Y42928D02*
X25652D01*
X31220Y39615D02*
X32350D01*
X24502Y40885D02*
X26915D01*
X24490D02*
X24502D01*
Y41035D01*
Y37075D02*
Y39118D01*
X27550Y43425D02*
X28820D01*
X34878Y40885D02*
X34878Y40885D01*
X32350Y40885D02*
X34878D01*
X26534Y47235D02*
X28820D01*
X27550Y39615D02*
X28820D01*
X29455Y40250D01*
Y42790D01*
X28820Y43425D02*
X29455Y42790D01*
X30870Y17145D02*
Y28575D01*
Y6350D02*
Y17145D01*
X90000Y25516D02*
X91000D01*
X89000D02*
X90000D01*
D60*
X28920Y51630D02*
D03*
X31460D02*
D03*
X34000D02*
D03*
X36540D02*
D03*
X39080D02*
D03*
X41620D02*
D03*
X44160D02*
D03*
X46700D02*
D03*
X50764D02*
D03*
X53304D02*
D03*
X55844D02*
D03*
X58384D02*
D03*
X60924D02*
D03*
X63464D02*
D03*
X66004D02*
D03*
X68544D02*
D03*
Y3370D02*
D03*
X66004D02*
D03*
X63464D02*
D03*
X60924D02*
D03*
X58384D02*
D03*
X55844D02*
D03*
X50764D02*
D03*
X48224D02*
D03*
X45684D02*
D03*
X43144D02*
D03*
X40604D02*
D03*
X38064D02*
D03*
X97620Y40513D02*
D03*
Y43053D02*
D03*
X83820Y13335D02*
D03*
X86360D02*
D03*
X88900D02*
D03*
X91440D02*
D03*
X93980D02*
D03*
Y10795D02*
D03*
X91440D02*
D03*
X88900D02*
D03*
X86360D02*
D03*
X83820D02*
D03*
X76030Y31496D02*
D03*
Y28956D02*
D03*
X76200Y13335D02*
D03*
Y10795D02*
D03*
X88900Y3810D02*
D03*
X86360D02*
D03*
X83820D02*
D03*
X81280D02*
D03*
D61*
X40460Y22860D02*
D03*
Y20320D02*
D03*
Y12700D02*
D03*
Y10160D02*
D03*
Y7620D02*
D03*
Y25400D02*
D03*
D62*
X97000Y52000D02*
D03*
X3000D02*
D03*
Y3000D02*
D03*
X14605Y3064D02*
D03*
Y25924D02*
D03*
X97000Y3000D02*
D03*
D63*
X14605Y14494D02*
D03*
D64*
X3810Y19880D02*
D03*
Y14800D02*
D03*
Y30040D02*
D03*
Y24960D02*
D03*
Y40200D02*
D03*
Y35120D02*
D03*
D65*
X96600Y27750D02*
D03*
X83400D02*
D03*
D66*
X87500Y34750D02*
D03*
X92500D02*
D03*
Y20250D02*
D03*
X90000D02*
D03*
X87500D02*
D03*
D67*
X55786Y41290D02*
D03*
X20955Y26035D02*
D03*
X52330Y31080D02*
D03*
X51385Y34580D02*
D03*
X49226Y32040D02*
D03*
X44331Y34485D02*
D03*
X71750Y32080D02*
D03*
X77085Y35874D02*
D03*
X59960Y43773D02*
D03*
X74638Y52374D02*
D03*
X71460Y47357D02*
D03*
X78960Y44243D02*
D03*
X65750Y38580D02*
D03*
X37878Y42345D02*
D03*
X76315Y46513D02*
D03*
X27035Y45330D02*
D03*
X22470Y46595D02*
D03*
X35560Y26035D02*
D03*
X90000Y28691D02*
D03*
X72750Y34580D02*
D03*
X76665Y39243D02*
D03*
X62750Y25175D02*
D03*
X71750Y33580D02*
D03*
X73750Y35580D02*
D03*
X74750Y36580D02*
D03*
X69250Y29830D02*
D03*
X59055Y22225D02*
D03*
X60960Y26035D02*
D03*
X55880Y23495D02*
D03*
X68580Y18415D02*
D03*
Y20250D02*
D03*
X57750Y37580D02*
D03*
Y32080D02*
D03*
X65750Y30580D02*
D03*
X60250Y30080D02*
D03*
X66675Y41910D02*
D03*
D68*
X17805Y28610D02*
D03*
X26534Y21971D02*
D03*
X30870Y11090D02*
D03*
X34195Y19610D02*
D03*
X22470Y12065D02*
D03*
D69*
X56250Y30580D02*
D03*
Y31080D02*
D03*
Y31580D02*
D03*
Y32080D02*
D03*
Y32580D02*
D03*
Y33080D02*
D03*
Y33580D02*
D03*
Y34080D02*
D03*
Y34580D02*
D03*
Y38080D02*
D03*
Y37580D02*
D03*
Y37080D02*
D03*
Y36580D02*
D03*
Y36080D02*
D03*
Y35580D02*
D03*
Y35080D02*
D03*
X67750Y30580D02*
D03*
Y31080D02*
D03*
Y31580D02*
D03*
Y32080D02*
D03*
Y32580D02*
D03*
Y37580D02*
D03*
Y37080D02*
D03*
Y33580D02*
D03*
Y34080D02*
D03*
Y34580D02*
D03*
Y35080D02*
D03*
Y35580D02*
D03*
Y36080D02*
D03*
Y36580D02*
D03*
Y33080D02*
D03*
Y38080D02*
D03*
D70*
X61250Y28580D02*
D03*
X60750D02*
D03*
X60250D02*
D03*
X59750D02*
D03*
X59250D02*
D03*
X58750D02*
D03*
X58250D02*
D03*
X61750D02*
D03*
X62250D02*
D03*
X62750D02*
D03*
X63250D02*
D03*
X63750D02*
D03*
X64250D02*
D03*
X64750D02*
D03*
X65250D02*
D03*
X65750D02*
D03*
X58250Y40080D02*
D03*
X63250D02*
D03*
X59750D02*
D03*
X60250D02*
D03*
X60750D02*
D03*
X61250D02*
D03*
X61750D02*
D03*
X62250D02*
D03*
X62750D02*
D03*
X59250D02*
D03*
X58750D02*
D03*
X63750D02*
D03*
X64250D02*
D03*
X64750D02*
D03*
X65250D02*
D03*
X65750D02*
D03*
D71*
X30870Y5715D02*
D03*
X22470D02*
D03*
Y17145D02*
D03*
X30870D02*
D03*
X22470Y28575D02*
D03*
X30870D02*
D03*
D72*
X17805Y34065D02*
D03*
Y31525D02*
D03*
X11405D02*
D03*
Y34065D02*
D03*
X41278Y38345D02*
D03*
Y40885D02*
D03*
X34878D02*
D03*
Y38345D02*
D03*
D73*
X17145Y38370D02*
D03*
X12065D02*
D03*
D74*
X14605Y48970D02*
D03*
D75*
X27550Y42155D02*
D03*
Y43425D02*
D03*
Y39615D02*
D03*
Y40885D02*
D03*
X32350Y42155D02*
D03*
Y43425D02*
D03*
Y40885D02*
D03*
Y39615D02*
D03*
D76*
X14605Y3064D02*
Y7310D01*
X7115Y14800D02*
X14605Y7310D01*
X3810Y14800D02*
X7115D01*
X3810Y19880D02*
Y24960D01*
D77*
X6985Y33215D02*
Y36097D01*
X14605Y29620D02*
Y33925D01*
Y25924D02*
Y29620D01*
X6985Y36097D02*
Y42180D01*
X17145Y36465D02*
Y38370D01*
X14605Y33925D02*
X17145Y36465D01*
X6985Y42180D02*
X11430Y46625D01*
X3810Y30040D02*
X6985Y33215D01*
M02*
