G04*
G04 #@! TF.GenerationSoftware,Altium Limited,Altium Designer,22.2.1 (43)*
G04*
G04 Layer_Color=32896*
%FSLAX43Y43*%
%MOMM*%
G71*
G04*
G04 #@! TF.SameCoordinates,4727E17F-0EAD-4C76-84FB-9B022A49384D*
G04*
G04*
G04 #@! TF.FilePolarity,Positive*
G04*
G01*
G75*
%ADD10C,2.000*%
%ADD11C,0.250*%
%ADD12C,0.254*%
%ADD13C,0.150*%
%ADD14C,0.200*%
%ADD16R,2.000X10.000*%
%ADD17R,3.000X2.000*%
%ADD18R,4.445X2.270*%
%ADD19R,1.000X2.000*%
%ADD20R,3.000X2.000*%
D10*
X63000Y15000D02*
G03*
X63000Y7000I0J-4000D01*
G01*
D11*
X18345Y38370D02*
G03*
X18345Y38370I-125J0D01*
G01*
X27675Y38765D02*
G03*
X27675Y38765I-125J0D01*
G01*
D12*
X67100Y29330D02*
G03*
X67100Y29330I-100J0D01*
G01*
X96350Y39243D02*
X98890D01*
Y44323D01*
X96350D02*
X98890D01*
X96350Y39243D02*
Y44323D01*
X83312Y17145D02*
X83820D01*
X83566Y18161D02*
X83820Y17145D01*
X83312D02*
X83566Y18161D01*
X78650Y7315D02*
Y16615D01*
Y7315D02*
X99150D01*
Y16615D01*
X78650D02*
X86360D01*
X91440D02*
X99150D01*
X86360Y16145D02*
Y16615D01*
Y16145D02*
X91440D01*
Y16615D01*
X74760Y32766D02*
X77300D01*
X74760Y27686D02*
Y32766D01*
Y27686D02*
X77300D01*
Y32766D01*
X74930Y14605D02*
X77470D01*
X74930Y9525D02*
Y14605D01*
Y9525D02*
X77470D01*
Y14605D01*
X79883Y2413D02*
Y5207D01*
Y2413D02*
X90297D01*
X79883Y5207D02*
X90297D01*
Y2413D02*
Y5207D01*
X-0Y-0D02*
X100000D01*
X-0D02*
Y55000D01*
X100000D01*
Y-0D02*
Y55000D01*
D13*
X57250Y29580D02*
Y39080D01*
X66750D01*
X57250Y29580D02*
X66000D01*
X66750Y30330D01*
Y39080D01*
X29970Y515D02*
X31870Y2415D01*
X21420Y515D02*
X29970D01*
X31870Y2415D02*
Y4215D01*
X21420Y515D02*
Y4215D01*
X31770Y915D02*
Y1715D01*
X31370Y1315D02*
X32170D01*
X21420Y7215D02*
Y10915D01*
X31870Y7215D02*
Y9015D01*
X21420Y10915D02*
X29970D01*
X31870Y9015D01*
X8890Y25924D02*
Y28464D01*
X20320D01*
Y25924D02*
Y28464D01*
X8890Y524D02*
Y3064D01*
Y524D02*
X20320D01*
Y3064D01*
X29970Y22345D02*
X31870Y20445D01*
X21420Y22345D02*
X29970D01*
X31870Y18645D02*
Y20445D01*
X21420Y18645D02*
Y22345D01*
X31370Y12745D02*
X32170D01*
X31770Y12345D02*
Y13145D01*
X21420Y11945D02*
Y15645D01*
X31870Y13845D02*
Y15645D01*
X21420Y11945D02*
X29970D01*
X31870Y13845D01*
X16637Y30763D02*
Y34319D01*
X16129Y34827D02*
X16637Y34319D01*
X12573Y34827D02*
X16129D01*
X12573Y30763D02*
X16637D01*
X12573D02*
Y34827D01*
X29970Y33775D02*
X31870Y31875D01*
X21420Y33775D02*
X29970D01*
X31870Y30075D02*
Y31875D01*
X21420Y30075D02*
Y33775D01*
X31370Y24175D02*
X32170D01*
X31770Y23775D02*
Y24575D01*
X21420Y23375D02*
Y27075D01*
X31870Y25275D02*
Y27075D01*
X21420Y23375D02*
X29970D01*
X31870Y25275D01*
X40110Y37583D02*
Y41647D01*
X36046D02*
X40110D01*
X36554Y37583D02*
X40110D01*
X36046Y38091D02*
X36554Y37583D01*
X36046Y38091D02*
Y41647D01*
D14*
X33510Y5480D02*
Y27430D01*
X42960D01*
Y5480D02*
Y27430D01*
X33510Y5480D02*
X42960D01*
X45670Y30170D02*
Y31370D01*
X29836Y46635D02*
Y47835D01*
X25518Y46635D02*
Y47835D01*
X23474Y44245D02*
Y45445D01*
X12421Y29020D02*
Y30220D01*
X8900Y35081D02*
X10100D01*
X19855Y42470D02*
Y43870D01*
X9355Y42470D02*
X19855D01*
X9355D02*
Y43870D01*
X92400Y24500D02*
X93600D01*
X90400D02*
X91600D01*
X86400D02*
X87600D01*
X88400D02*
X89600D01*
X88984Y31266D02*
Y32466D01*
X86400Y28691D02*
X87600D01*
X42778Y39845D02*
X43978D01*
X54770Y39016D02*
Y40216D01*
X407Y12337D02*
Y22340D01*
Y12337D02*
X408Y12336D01*
X8407D01*
Y22344D01*
X8404Y22340D02*
X8407Y22344D01*
X407Y22340D02*
X8404D01*
X407Y22497D02*
Y32500D01*
Y22497D02*
X408Y22496D01*
X8407D01*
Y32504D01*
X8404Y32500D02*
X8407Y32504D01*
X407Y32500D02*
X8404D01*
X407Y32657D02*
Y42660D01*
Y32657D02*
X408Y32656D01*
X8407D01*
Y42664D01*
X8404Y42660D02*
X8407Y42664D01*
X407Y42660D02*
X8404D01*
X29836Y44730D02*
Y45930D01*
X25518Y36475D02*
Y37675D01*
X23474Y42340D02*
Y43540D01*
Y40435D02*
Y41635D01*
Y38519D02*
Y39718D01*
X29050Y39020D02*
Y44020D01*
X30850Y39020D02*
Y44020D01*
X29050Y39020D02*
X30850D01*
X29050Y44020D02*
X30850D01*
X33862Y35745D02*
Y36945D01*
X20610Y22225D02*
X20727Y22342D01*
X20960D01*
X21077Y22225D01*
Y21759D01*
X20960Y21642D01*
X20727D01*
X20610Y21759D01*
X19911Y21642D02*
X20377D01*
X19911Y22109D01*
Y22225D01*
X20027Y22342D01*
X20261D01*
X20377Y22225D01*
X19677Y21759D02*
X19561Y21642D01*
X19328D01*
X19211Y21759D01*
Y22225D01*
X19328Y22342D01*
X19561D01*
X19677Y22225D01*
Y22109D01*
X19561Y21992D01*
X19211D01*
X36998Y32333D02*
X37115Y32450D01*
X37348D01*
X37465Y32333D01*
Y31867D01*
X37348Y31750D01*
X37115D01*
X36998Y31867D01*
X36765Y32333D02*
X36649Y32450D01*
X36415D01*
X36299Y32333D01*
Y32217D01*
X36415Y32100D01*
X36532D01*
X36415D01*
X36299Y31983D01*
Y31867D01*
X36415Y31750D01*
X36649D01*
X36765Y31867D01*
X36065Y32333D02*
X35949Y32450D01*
X35716D01*
X35599Y32333D01*
Y31867D01*
X35716Y31750D01*
X35949D01*
X36065Y31867D01*
Y32333D01*
X98423Y45658D02*
X98657D01*
X98540D01*
Y45075D01*
X98657Y44958D01*
X98773D01*
X98890Y45075D01*
X97840Y44958D02*
Y45658D01*
X98190Y45308D01*
X97724D01*
X26919Y48312D02*
Y49012D01*
X26569D01*
X26452Y48895D01*
Y48662D01*
X26569Y48545D01*
X26919D01*
X26686D02*
X26452Y48312D01*
X26219Y48895D02*
X26103Y49012D01*
X25869D01*
X25753Y48895D01*
Y48779D01*
X25869Y48662D01*
X25986D01*
X25869D01*
X25753Y48545D01*
Y48429D01*
X25869Y48312D01*
X26103D01*
X26219Y48429D01*
X25519Y48895D02*
X25403Y49012D01*
X25170D01*
X25053Y48895D01*
Y48429D01*
X25170Y48312D01*
X25403D01*
X25519Y48429D01*
Y48895D01*
X22982Y48693D02*
Y49393D01*
X22632D01*
X22515Y49276D01*
Y49043D01*
X22632Y48926D01*
X22982D01*
X22749D02*
X22515Y48693D01*
X21816D02*
X22282D01*
X21816Y49160D01*
Y49276D01*
X21932Y49393D01*
X22166D01*
X22282Y49276D01*
X21582Y48810D02*
X21466Y48693D01*
X21233D01*
X21116Y48810D01*
Y49276D01*
X21233Y49393D01*
X21466D01*
X21582Y49276D01*
Y49160D01*
X21466Y49043D01*
X21116D01*
X33396Y46661D02*
Y47361D01*
X33046D01*
X32929Y47244D01*
Y47011D01*
X33046Y46894D01*
X33396D01*
X33163D02*
X32929Y46661D01*
X32230D02*
X32696D01*
X32230Y47128D01*
Y47244D01*
X32346Y47361D01*
X32580D01*
X32696Y47244D01*
X31996Y46661D02*
X31763D01*
X31880D01*
Y47361D01*
X31996Y47244D01*
X85503Y23443D02*
X85620Y23326D01*
Y23093D01*
X85503Y22976D01*
X85037D01*
X84920Y23093D01*
Y23326D01*
X85037Y23443D01*
X85620Y23676D02*
Y24142D01*
X85503D01*
X85037Y23676D01*
X84920D01*
X93123Y27253D02*
X93240Y27136D01*
Y26903D01*
X93123Y26786D01*
X92657D01*
X92540Y26903D01*
Y27136D01*
X92657Y27253D01*
X92540Y27836D02*
X93240D01*
X92890Y27486D01*
Y27952D01*
X85503Y30428D02*
X85620Y30311D01*
Y30078D01*
X85503Y29961D01*
X85037D01*
X84920Y30078D01*
Y30311D01*
X85037Y30428D01*
X85503Y30661D02*
X85620Y30777D01*
Y31011D01*
X85503Y31127D01*
X85387D01*
X85270Y31011D01*
Y30894D01*
Y31011D01*
X85153Y31127D01*
X85037D01*
X84920Y31011D01*
Y30777D01*
X85037Y30661D01*
X52315Y39608D02*
X52432Y39725D01*
X52665D01*
X52782Y39608D01*
Y39142D01*
X52665Y39025D01*
X52432D01*
X52315Y39142D01*
X51616Y39025D02*
X52082D01*
X51616Y39492D01*
Y39608D01*
X51732Y39725D01*
X51966D01*
X52082Y39608D01*
X51382Y39025D02*
X51149D01*
X51266D01*
Y39725D01*
X51382Y39608D01*
X30475Y38598D02*
Y38015D01*
X30358Y37898D01*
X30125D01*
X30008Y38015D01*
Y38598D01*
X29775Y38015D02*
X29659Y37898D01*
X29425D01*
X29309Y38015D01*
Y38481D01*
X29425Y38598D01*
X29659D01*
X29775Y38481D01*
Y38365D01*
X29659Y38248D01*
X29309D01*
X40127Y42789D02*
Y42206D01*
X40010Y42089D01*
X39777D01*
X39660Y42206D01*
Y42789D01*
X39427Y42672D02*
X39311Y42789D01*
X39077D01*
X38961Y42672D01*
Y42556D01*
X39077Y42439D01*
X38961Y42322D01*
Y42206D01*
X39077Y42089D01*
X39311D01*
X39427Y42206D01*
Y42322D01*
X39311Y42439D01*
X39427Y42556D01*
Y42672D01*
X39311Y42439D02*
X39077D01*
X43656Y27291D02*
X44239D01*
X44356Y27174D01*
Y26941D01*
X44239Y26824D01*
X43656D01*
Y26125D02*
X43773Y26358D01*
X44006Y26591D01*
X44239D01*
X44356Y26475D01*
Y26241D01*
X44239Y26125D01*
X44123D01*
X44006Y26241D01*
Y26591D01*
X68375Y40200D02*
Y39617D01*
X68258Y39500D01*
X68025D01*
X67908Y39617D01*
Y40200D01*
X67325Y39500D02*
Y40200D01*
X67675Y39850D01*
X67209D01*
X15875Y35895D02*
Y35312D01*
X15758Y35195D01*
X15525D01*
X15408Y35312D01*
Y35895D01*
X15175Y35778D02*
X15059Y35895D01*
X14825D01*
X14709Y35778D01*
Y35662D01*
X14825Y35545D01*
X14942D01*
X14825D01*
X14709Y35428D01*
Y35312D01*
X14825Y35195D01*
X15059D01*
X15175Y35312D01*
X23109Y35993D02*
Y36693D01*
X22759D01*
X22642Y36576D01*
Y36343D01*
X22759Y36226D01*
X23109D01*
X22876D02*
X22642Y35993D01*
X21943D02*
X22409D01*
X21943Y36460D01*
Y36576D01*
X22059Y36693D01*
X22293D01*
X22409Y36576D01*
X21243Y35993D02*
X21709D01*
X21243Y36460D01*
Y36576D01*
X21360Y36693D01*
X21593D01*
X21709Y36576D01*
X37968Y35612D02*
Y36312D01*
X37618D01*
X37501Y36195D01*
Y35962D01*
X37618Y35845D01*
X37968D01*
X37735D02*
X37501Y35612D01*
X36802D02*
X37268D01*
X36802Y36079D01*
Y36195D01*
X36918Y36312D01*
X37152D01*
X37268Y36195D01*
X36102Y36312D02*
X36335Y36195D01*
X36568Y35962D01*
Y35729D01*
X36452Y35612D01*
X36219D01*
X36102Y35729D01*
Y35845D01*
X36219Y35962D01*
X36568D01*
X26250Y35080D02*
Y35780D01*
X25900D01*
X25783Y35663D01*
Y35430D01*
X25900Y35313D01*
X26250D01*
X26017D02*
X25783Y35080D01*
X25084D02*
X25550D01*
X25084Y35547D01*
Y35663D01*
X25200Y35780D01*
X25434D01*
X25550Y35663D01*
X24850D02*
X24734Y35780D01*
X24501D01*
X24384Y35663D01*
Y35197D01*
X24501Y35080D01*
X24734D01*
X24850Y35197D01*
Y35663D01*
X16124Y29008D02*
Y29708D01*
X15774D01*
X15657Y29591D01*
Y29358D01*
X15774Y29241D01*
X16124D01*
X15891D02*
X15657Y29008D01*
X15424D02*
X15191D01*
X15308D01*
Y29708D01*
X15424Y29591D01*
X14841Y29708D02*
X14375D01*
Y29591D01*
X14841Y29125D01*
Y29008D01*
X49221Y30187D02*
Y30887D01*
X48871D01*
X48754Y30770D01*
Y30537D01*
X48871Y30420D01*
X49221D01*
X48988D02*
X48754Y30187D01*
X48521D02*
X48288D01*
X48405D01*
Y30887D01*
X48521Y30770D01*
X47472Y30187D02*
X47938D01*
X47472Y30654D01*
Y30770D01*
X47588Y30887D01*
X47821D01*
X47938Y30770D01*
X9139Y31675D02*
X9839D01*
Y32025D01*
X9722Y32142D01*
X9489D01*
X9372Y32025D01*
Y31675D01*
Y31908D02*
X9139Y32142D01*
Y32375D02*
Y32608D01*
Y32491D01*
X9839D01*
X9722Y32375D01*
X9139Y32958D02*
Y33191D01*
Y33075D01*
X9839D01*
X9722Y32958D01*
X88730Y26786D02*
X89430D01*
Y27136D01*
X89313Y27253D01*
X89080D01*
X88963Y27136D01*
Y26786D01*
Y27019D02*
X88730Y27253D01*
Y27486D02*
Y27719D01*
Y27602D01*
X89430D01*
X89313Y27486D01*
Y28069D02*
X89430Y28186D01*
Y28419D01*
X89313Y28535D01*
X88847D01*
X88730Y28419D01*
Y28186D01*
X88847Y28069D01*
X89313D01*
X90635Y26786D02*
X91335D01*
Y27136D01*
X91218Y27253D01*
X90985D01*
X90868Y27136D01*
Y26786D01*
Y27019D02*
X90635Y27253D01*
Y27836D02*
X91335D01*
X90985Y27486D01*
Y27952D01*
X92070Y31421D02*
Y32121D01*
X91720D01*
X91603Y32004D01*
Y31771D01*
X91720Y31654D01*
X92070D01*
X91837D02*
X91603Y31421D01*
X91370Y32004D02*
X91254Y32121D01*
X91020D01*
X90904Y32004D01*
Y31888D01*
X91020Y31771D01*
X91137D01*
X91020D01*
X90904Y31654D01*
Y31538D01*
X91020Y31421D01*
X91254D01*
X91370Y31538D01*
X8283Y45197D02*
Y45663D01*
X8400Y45780D01*
X8633D01*
X8750Y45663D01*
Y45197D01*
X8633Y45080D01*
X8400D01*
X8517Y45313D02*
X8283Y45080D01*
X8400D02*
X8283Y45197D01*
X8050Y45663D02*
X7934Y45780D01*
X7700D01*
X7584Y45663D01*
Y45547D01*
X7700Y45430D01*
X7817D01*
X7700D01*
X7584Y45313D01*
Y45197D01*
X7700Y45080D01*
X7934D01*
X8050Y45197D01*
X76833Y26851D02*
X77067D01*
X76950D01*
Y26268D01*
X77067Y26151D01*
X77183D01*
X77300Y26268D01*
X76600Y26151D02*
Y26851D01*
X76250D01*
X76134Y26734D01*
Y26501D01*
X76250Y26384D01*
X76600D01*
X75900Y26151D02*
X75667D01*
X75784D01*
Y26851D01*
X75900Y26734D01*
X76368Y15940D02*
X76602D01*
X76485D01*
Y15357D01*
X76602Y15240D01*
X76718D01*
X76835Y15357D01*
X76135Y15240D02*
Y15940D01*
X75785D01*
X75669Y15823D01*
Y15590D01*
X75785Y15473D01*
X76135D01*
X74969Y15240D02*
X75435D01*
X74969Y15707D01*
Y15823D01*
X75086Y15940D01*
X75319D01*
X75435Y15823D01*
X89533Y1451D02*
X89767D01*
X89650D01*
Y868D01*
X89767Y751D01*
X89883D01*
X90000Y868D01*
X88834Y1451D02*
X89067Y1334D01*
X89300Y1101D01*
Y868D01*
X89184Y751D01*
X88950D01*
X88834Y868D01*
Y984D01*
X88950Y1101D01*
X89300D01*
X7748Y11840D02*
X7982D01*
X7865D01*
Y11257D01*
X7982Y11140D01*
X8098D01*
X8215Y11257D01*
X7049Y11840D02*
X7515D01*
Y11490D01*
X7282Y11607D01*
X7165D01*
X7049Y11490D01*
Y11257D01*
X7165Y11140D01*
X7399D01*
X7515Y11257D01*
X9653Y22635D02*
X9887D01*
X9770D01*
Y22052D01*
X9887Y21935D01*
X10003D01*
X10120Y22052D01*
X9420Y22518D02*
X9304Y22635D01*
X9070D01*
X8954Y22518D01*
Y22402D01*
X9070Y22285D01*
X9187D01*
X9070D01*
X8954Y22168D01*
Y22052D01*
X9070Y21935D01*
X9304D01*
X9420Y22052D01*
X7788Y44075D02*
X8022D01*
X7905D01*
Y43492D01*
X8022Y43375D01*
X8138D01*
X8255Y43492D01*
X7089Y43375D02*
X7555D01*
X7089Y43842D01*
Y43958D01*
X7205Y44075D01*
X7439D01*
X7555Y43958D01*
X93972Y6838D02*
X94206D01*
X94089D01*
Y6255D01*
X94206Y6139D01*
X94322D01*
X94439Y6255D01*
X93739Y6139D02*
X93506D01*
X93622D01*
Y6838D01*
X93739Y6722D01*
X19718Y29952D02*
X20184D01*
Y29602D01*
X19951D01*
X20184D01*
Y29253D01*
X19484D02*
X19251D01*
X19368D01*
Y29952D01*
X19484Y29836D01*
X22515Y48133D02*
X22632Y48250D01*
X22865D01*
X22982Y48133D01*
Y47667D01*
X22865Y47550D01*
X22632D01*
X22515Y47667D01*
X21816Y47550D02*
X22282D01*
X21816Y48017D01*
Y48133D01*
X21932Y48250D01*
X22166D01*
X22282Y48133D01*
X21582D02*
X21466Y48250D01*
X21233D01*
X21116Y48133D01*
Y48017D01*
X21233Y47900D01*
X21349D01*
X21233D01*
X21116Y47783D01*
Y47667D01*
X21233Y47550D01*
X21466D01*
X21582Y47667D01*
X22642Y37846D02*
X22759Y37963D01*
X22992D01*
X23109Y37846D01*
Y37380D01*
X22992Y37263D01*
X22759D01*
X22642Y37380D01*
X21943Y37263D02*
X22409D01*
X21943Y37730D01*
Y37846D01*
X22059Y37963D01*
X22293D01*
X22409Y37846D01*
X21360Y37263D02*
Y37963D01*
X21709Y37613D01*
X21243D01*
X43631Y36587D02*
X43748Y36470D01*
Y36237D01*
X43631Y36120D01*
X43165D01*
X43048Y36237D01*
Y36470D01*
X43165Y36587D01*
X43048Y37286D02*
Y36820D01*
X43515Y37286D01*
X43631D01*
X43748Y37170D01*
Y36936D01*
X43631Y36820D01*
X43048Y37986D02*
Y37520D01*
X43515Y37986D01*
X43631D01*
X43748Y37869D01*
Y37636D01*
X43631Y37520D01*
X33056Y45339D02*
X33173Y45456D01*
X33406D01*
X33523Y45339D01*
Y44873D01*
X33406Y44756D01*
X33173D01*
X33056Y44873D01*
X32823Y44756D02*
X32590D01*
X32707D01*
Y45456D01*
X32823Y45339D01*
X32240Y44873D02*
X32123Y44756D01*
X31890D01*
X31774Y44873D01*
Y45339D01*
X31890Y45456D01*
X32123D01*
X32240Y45339D01*
Y45223D01*
X32123Y45106D01*
X31774D01*
X20483Y10795D02*
X20600Y10912D01*
X20833D01*
X20950Y10795D01*
Y10329D01*
X20833Y10212D01*
X20600D01*
X20483Y10329D01*
X20250Y10212D02*
X20017D01*
X20134D01*
Y10912D01*
X20250Y10795D01*
X19667Y10212D02*
X19434D01*
X19550D01*
Y10912D01*
X19667Y10795D01*
D16*
X68000Y11000D02*
D03*
D17*
X66500Y15000D02*
D03*
D18*
X66223Y10865D02*
D03*
D19*
X63500Y15000D02*
D03*
D20*
X64500Y7000D02*
D03*
M02*
